<?xml version="1.0" encoding="UTF-8"?> <svg xmlns="http://www.w3.org/2000/svg" xmlns:xlink="http://www.w3.org/1999/xlink" width="401px" height="401px" viewBox="0 0 401 401"><!-- Generator: Sketch 53.2 (72643) - https://sketchapp.com --><title>Data Scientist</title><desc>Created with Sketch.</desc><g id="Page-1" stroke="none" stroke-width="1" fill="none" fill-rule="evenodd"><g id="Artboard" transform="translate(-122.000000, -155.000000)" fill-rule="nonzero"><g id="Data-Scientist" transform="translate(122.476190, 155.645905)"><path d="M268.316129,244.774194 C282.154839,243.122581 293.374194,232.825806 296.122581,219.354839 L400,219.354839 L400,0 L0,0 L0,219.354839 L103.877419,219.354839 C106.625806,232.832258 117.845161,243.129032 131.683871,244.774194 C136.354839,261.580645 147.032258,275.883871 161.290323,285.206452 L161.290323,298.574194 L95.3935484,320.541935 C76.9290323,326.696774 64.516129,343.916129 64.516129,363.380645 L64.516129,400 L335.483871,400 L335.483871,363.380645 C335.483871,343.909677 323.070968,326.690323 304.606452,320.541935 L238.709677,298.574194 L238.709677,285.206452 C252.967742,275.883871 263.63871,261.580645 268.316129,244.774194 Z M199.322581,158.406452 L195.864516,151.496774 L189.677419,156.129032 C175.496774,166.754839 159.122581,174.6 141.935484,179.025806 L141.935484,161.290323 L129.032258,161.290323 L129.032258,181.296774 C124.23871,182.277419 119.896774,184.406452 116.129032,187.258065 L116.129032,155.012903 C116.129032,112.232258 150.941935,77.4193548 193.722581,77.4193548 C219.729032,77.4193548 243.864516,90.3354839 258.290323,111.967742 L260.535484,115.329032 L262.954839,115.935484 C275.270968,119.012903 283.870968,130.032258 283.870968,142.729032 L283.870968,187.264516 C280.103226,184.412903 275.76129,182.277419 270.967742,181.303226 L270.967742,148.387097 L260.645161,156.129032 C244.625806,168.141935 225.677419,175.987097 205.858065,178.819355 L202.664516,179.277419 C203.677419,172.212903 202.56129,164.896774 199.322581,158.406452 Z M107.135484,128.774194 C97.6709677,127.516129 90.3225806,119.477419 90.3225806,109.677419 C90.3225806,99.0064516 99.0064516,90.3225806 109.677419,90.3225806 C115.380645,90.3225806 120.670968,92.8451613 124.303226,97.0580645 C116.606452,106.264516 110.709677,117.012903 107.135484,128.774194 Z M133.348387,87.7935484 C127.322581,81.2774194 118.812903,77.4193548 109.677419,77.4193548 C103.116129,77.4193548 97.0193548,79.4129032 91.916129,82.7935484 L64.2967742,55.1741935 C76.6129032,44.9096774 92.4322581,38.7096774 109.677419,38.7096774 C132.748387,38.7096774 154.135484,49.9548387 167.374194,68.4580645 C154.587097,72.3548387 143.051613,79.0709677 133.348387,87.7935484 Z M55.1741935,64.2967742 L82.7935484,91.916129 C79.4129032,97.0193548 77.4193548,103.116129 77.4193548,109.677419 C77.4193548,116.23871 79.4129032,122.335484 82.7935484,127.43871 L55.1741935,155.058065 C44.9096774,142.741935 38.7096774,126.922581 38.7096774,109.677419 C38.7096774,92.4322581 44.9096774,76.6129032 55.1741935,64.2967742 Z M91.916129,136.56129 C95.6,139.006452 99.8322581,140.63871 104.36129,141.4 C103.690323,145.851613 103.225806,150.374194 103.225806,155.012903 L103.225806,180.316129 C88.4967742,178.980645 75.0580645,173.148387 64.2967742,164.180645 L91.916129,136.56129 Z M270.696774,231.154839 C270.832258,229.380645 270.967742,227.612903 270.967742,225.806452 L270.967742,194.735484 C278.458065,197.406452 283.870968,204.503226 283.870968,212.903226 C283.870968,221.4 278.329032,228.56129 270.696774,231.154839 Z M12.9032258,12.9032258 L387.096774,12.9032258 L387.096774,206.451613 L296.774194,206.451613 L296.774194,142.729032 C296.774194,124.967742 285.296774,109.445161 268.56129,104.122581 C251.690323,79.3032258 223.780645,64.516129 193.722581,64.516129 C189.380645,64.516129 185.141935,64.9290323 180.96129,65.5225806 C165.703226,40.9225806 138.806452,25.8064516 109.677419,25.8064516 C63.4322581,25.8064516 25.8064516,63.4322581 25.8064516,109.677419 C25.8064516,153.741935 59.9935484,189.903226 103.225806,193.219355 L103.225806,206.451613 L12.9032258,206.451613 L12.9032258,12.9032258 Z M116.129032,212.903226 C116.129032,204.503226 121.541935,197.406452 129.032258,194.735484 L129.032258,225.806452 C129.032258,227.612903 129.167742,229.380645 129.303226,231.154839 C121.670968,228.56129 116.129032,221.4 116.129032,212.903226 Z M141.935484,225.806452 L141.935484,192.309677 C158.974194,188.335484 175.367742,181.283871 189.987097,171.670968 C190.464516,175.935484 189.729032,180.309677 187.774194,184.212903 L182.264516,195.225806 L207.683871,191.6 C225.522581,189.045161 242.722581,182.83871 258.064516,173.458065 L258.064516,225.806452 C258.064516,257.825806 232.019355,283.870968 200,283.870968 C167.980645,283.870968 141.935484,257.825806 141.935484,225.806452 Z M166,310.606452 L190.877419,335.483871 L168.916129,357.445161 L144.187097,317.877419 L166,310.606452 Z M77.4193548,363.380645 C77.4193548,349.477419 86.283871,337.174194 99.4774194,332.780645 L131.593548,322.077419 L166.567742,378.03871 L193.548387,351.058065 L193.548387,387.096774 L129.032258,387.096774 L129.032258,361.290323 L116.129032,361.290323 L116.129032,387.096774 L77.4193548,387.096774 L77.4193548,363.380645 Z M322.580645,363.380645 L322.580645,387.096774 L283.870968,387.096774 L283.870968,361.290323 L270.967742,361.290323 L270.967742,387.096774 L206.451613,387.096774 L206.451613,351.058065 L233.432258,378.03871 L268.406452,322.077419 L300.522581,332.780645 C313.716129,337.180645 322.580645,349.477419 322.580645,363.380645 Z M255.812903,317.877419 L231.083871,357.445161 L209.122581,335.483871 L234,310.606452 L255.812903,317.877419 Z M225.806452,300.554839 L200,326.36129 L174.193548,300.554839 L174.193548,291.845161 C182.206452,294.987097 190.890323,296.774194 200,296.774194 C209.109677,296.774194 217.793548,294.987097 225.806452,291.845161 L225.806452,300.554839 Z" id="Shape" fill="#4A4A4A"></path><g id="Clotes" transform="translate(77.419355, 310.606452)" fill="#4DA3D1"><polygon id="Path-Copy-11" points="88.5806452 2.13162821e-14 113.458065 24.8774194 91.4967742 46.8387097 66.7677419 7.27096774"></polygon><path d="M-6.39488462e-14,52.7741935 C-6.39488462e-14,38.8709677 8.86451613,26.5677419 22.0580645,22.1741935 L54.1741935,11.4709677 L89.1483871,67.4322581 L116.129032,40.4516129 L116.129032,76.4903226 L51.6129032,76.4903226 L51.6129032,50.683871 L38.7096774,50.683871 L38.7096774,76.4903226 L-6.39488462e-14,76.4903226 L-6.39488462e-14,52.7741935 Z" id="Path-Copy-10"></path><path d="M245.16129,52.7741935 L245.16129,76.4903226 L206.451613,76.4903226 L206.451613,50.683871 L193.548387,50.683871 L193.548387,76.4903226 L129.032258,76.4903226 L129.032258,40.4516129 L156.012903,67.4322581 L190.987097,11.4709677 L223.103226,22.1741935 C236.296774,26.5741935 245.16129,38.8709677 245.16129,52.7741935 Z" id="Path-Copy-9"></path><polygon id="Path-Copy-8" points="178.393548 7.27096774 153.664516 46.8387097 131.703226 24.8774194 156.580645 0"></polygon></g><g id="Chart" transform="translate(38.709677, 38.709677)"><path d="M94.6387097,49.083871 C88.6129032,42.5677419 80.1032258,38.7096774 70.9677419,38.7096774 C64.4064516,38.7096774 58.3096774,40.7032258 53.2064516,44.083871 L25.5870968,16.4645161 C37.9032258,6.2 53.7225806,0 70.9677419,0 C94.0387097,0 115.425806,11.2451613 128.664516,29.7483871 C115.877419,33.6451613 104.341935,40.3612903 94.6387097,49.083871 Z" id="Path-Copy-7" fill="#4DA3D1"></path><path d="M16.4645161,25.5870968 L44.083871,53.2064516 C40.7032258,58.3096774 38.7096774,64.4064516 38.7096774,70.9677419 C38.7096774,77.5290323 40.7032258,83.6258065 44.083871,88.7290323 L16.4645161,116.348387 C6.2,104.032258 -2.7000624e-13,88.2129032 -2.7000624e-13,70.9677419 C-2.7000624e-13,53.7225806 6.2,37.9032258 16.4645161,25.5870968 Z" id="Path-Copy-6" fill="#9B9B9B"></path><path d="M53.2064516,97.8516129 C56.8903226,100.296774 61.1225806,101.929032 65.6516129,102.690323 C64.9806452,107.141935 64.516129,111.664516 64.516129,116.303226 L64.516129,141.606452 C49.7870968,140.270968 36.3483871,134.43871 25.5870968,125.470968 L53.2064516,97.8516129 Z" id="Path-Copy-5" fill="#FE5F55"></path></g><g id="Skin" transform="translate(116.129032, 171.670968)" fill="#FFFFFF"><path d="M154.567742,59.483871 C154.703226,57.7096774 154.83871,55.9419355 154.83871,54.1354839 L154.83871,23.0645161 C162.329032,25.7354839 167.741935,32.8322581 167.741935,41.2322581 C167.741935,49.7290323 162.2,56.8903226 154.567742,59.483871 Z" id="Path-Copy-4"></path><path d="M0,41.2322581 C0,32.8322581 5.41290323,25.7354839 12.9032258,23.0645161 L12.9032258,54.1354839 C12.9032258,55.9419355 13.0387097,57.7096774 13.1741935,59.483871 C5.54193548,56.8903226 0,49.7290323 0,41.2322581 Z" id="Path-Copy-3"></path><path d="M25.8064516,54.1354839 L25.8064516,20.6387097 C42.8451613,16.6645161 59.2387097,9.61290323 73.8580645,2.84217094e-14 C74.3354839,4.26451613 73.6,8.63870968 71.6451613,12.5419355 L66.1354839,23.5548387 L91.5548387,19.9290323 C109.393548,17.3741935 126.593548,11.1677419 141.935484,1.78709677 L141.935484,54.1354839 C141.935484,86.1548387 115.890323,112.2 83.8709677,112.2 C51.8516129,112.2 25.8064516,86.1548387 25.8064516,54.1354839 Z" id="Path-Copy-2"></path><path d="M109.677419,128.883871 L83.8709677,154.690323 L58.0645161,128.883871 L58.0645161,120.174194 C66.0774194,123.316129 74.7612903,125.103226 83.8709677,125.103226 C92.9806452,125.103226 101.664516,123.316129 109.677419,120.174194 L109.677419,128.883871 Z" id="Path-Copy"></path></g><path d="M199.322581,158.406452 L195.864516,151.496774 L189.677419,156.129032 C175.496774,166.754839 159.122581,174.6 141.935484,179.025806 L141.935484,161.290323 L129.032258,161.290323 L129.032258,181.296774 C124.23871,182.277419 119.896774,184.406452 116.129032,187.258065 L116.129032,155.012903 C116.129032,112.232258 150.941935,77.4193548 193.722581,77.4193548 C219.729032,77.4193548 243.864516,90.3354839 258.290323,111.967742 L260.535484,115.329032 L262.954839,115.935484 C275.270968,119.012903 283.870968,130.032258 283.870968,142.729032 L283.870968,187.264516 C280.103226,184.412903 275.76129,182.277419 270.967742,181.303226 L270.967742,148.387097 L260.645161,156.129032 C244.625806,168.141935 225.677419,175.987097 205.858065,178.819355 L202.664516,179.277419 C203.677419,172.212903 202.56129,164.896774 199.322581,158.406452 Z" id="Path" fill="#F7C31A"></path><g id="Group-2" transform="translate(206.451613, 25.806452)" fill="#9B9B9B"><rect id="Rectangle" x="154.83871" y="-6.21724894e-15" width="12.9032258" height="12.9032258"></rect><rect id="Rectangle" x="1.42108547e-14" y="-6.21724894e-15" width="141.935484" height="12.9032258"></rect><rect id="Rectangle" x="38.7096774" y="25.8064516" width="129.032258" height="12.9032258"></rect><rect id="Rectangle" x="77.4193548" y="51.6129032" width="90.3225806" height="12.9032258"></rect><rect id="Rectangle" x="103.225806" y="77.4193548" width="64.516129" height="12.9032258"></rect><rect id="Rectangle" x="103.225806" y="103.225806" width="64.516129" height="12.9032258"></rect><rect id="Rectangle" x="103.225806" y="129.032258" width="64.516129" height="12.9032258"></rect><rect id="Rectangle" x="103.225806" y="154.83871" width="64.516129" height="12.9032258"></rect></g></g></g></g></svg> 